# xmcd CD database file
#
# Track frame offsets:
#	180
#	12759
#	24420
#	41934
#	58634
#	70979
#	82765
#	95092
#	108018
#	120331
#
# Disc length: 1738 seconds
#
# Revision: 0
# Processed by: cddbd v1.4b42PL0 Copyright (c) Steve Scherf et al.
# Submitted via: CDex 1.40Beta5
#
DISCID=7306c80a
DTITLE=Merle Haggard - Good Old Country
DYEAR=1900
DGENRE=Country
TTITLE0=If We Make It Through December
TTITLE1=From Graceland To The Promised Land
TTITLE2=I think I'll Just Stay Here And Drink
TTITLE3=Ramblin' Fever
TTITLE4=Okie From Muskogee
TTITLE5=Carolyn
TTITLE6=Everybody's Had The Blues
TTITLE7=The Fightin' Side Of Me
TTITLE8=Workin' Man Blues
TTITLE9=Mama Tried
EXTD=ID3G:   2
EXTT0=
EXTT1=
EXTT2=
EXTT3=
EXTT4=
EXTT5=
EXTT6=
EXTT7=
EXTT8=
EXTT9=
PLAYORDER=
